<svg width="17" height="15" viewBox="0 0 17 15" fill="none" xmlns="http://www.w3.org/2000/svg">
<path d="M0.601061 6.85883C2.28441 5.93159 4.16349 5.15771 5.91921 4.37987C8.93973 3.10583 11.9723 1.85387 15.0354 0.688307C15.6314 0.489707 16.7022 0.295487 16.8072 1.17869C16.7497 2.42885 16.5132 3.67169 16.3509 4.91453C15.9392 7.64765 15.4632 10.3714 14.9991 13.0955C14.8392 14.0029 13.7025 14.4726 12.9752 13.892C11.2273 12.7113 9.46593 11.5421 7.74033 10.3341C7.17507 9.75971 7.69923 8.93489 8.20407 8.52473C9.64371 7.10597 11.1705 5.90057 12.5349 4.40849C12.9029 3.51971 11.8155 4.26875 11.4568 4.49825C9.48591 5.85641 7.56327 7.29749 5.48535 8.49113C4.42395 9.07541 3.18687 8.57609 2.12595 8.25005C1.1747 7.85621 -0.219235 7.45943 0.600965 6.85889L0.601061 6.85883Z" fill="currentColor"/>
</svg>
